<?xml version="1.0" encoding="UTF-8"?><!-- Uploaded to: SVG Repo, www.svgrepo.com, Generator: SVG Repo Mixer Tools -->
<svg width="800px" height="800px" viewBox="0 0 48 48" id="a" xmlns="http://www.w3.org/2000/svg"><defs><style>.b{fill:none;stroke:#000000;stroke-linecap:round;stroke-linejoin:round;}</style></defs><rect class="b" x="24" y="17.8" width="6.2" height="6.2"/><rect class="b" x="30.2" y="17.8" width="6.2" height="6.2"/><rect class="b" x="36.3" y="5.5" width="6.2" height="6.2"/><rect class="b" x="30.2" y="11.7" width="6.2" height="6.2"/><rect class="b" x="17.8" y="24" width="6.2" height="6.2"/><rect class="b" x="24" y="36.3" width="6.2" height="6.2"/><rect class="b" x="36.3" y="36.3" width="6.2" height="6.2"/><rect class="b" x="36.3" y="30.2" width="6.2" height="6.2"/><rect class="b" x="24" y="24" width="6.2" height="6.2"/><rect class="b" x="17.8" y="36.3" width="6.2" height="6.2"/><rect class="b" x="11.7" y="36.3" width="6.2" height="6.2"/><rect class="b" x="5.5" y="36.3" width="6.2" height="6.2"/><rect class="b" x="11.7" y="30.2" width="6.2" height="6.2"/><rect class="b" x="24" y="11.7" width="6.2" height="6.2"/><rect class="b" x="5.5" y="30.2" width="6.2" height="6.2"/><rect class="b" x="24" y="30.2" width="6.2" height="6.2"/><rect class="b" x="17.8" y="30.2" width="6.2" height="6.2"/><rect class="b" x="30.2" y="36.3" width="6.2" height="6.2"/><rect class="b" x="30.2" y="30.2" width="6.2" height="6.2"/><rect class="b" x="36.3" y="24" width="6.2" height="6.2"/><rect class="b" x="30.2" y="24" width="6.2" height="6.2"/></svg>